<svg width="150" height="32" viewBox="0 0 150 32" fill="none" xmlns="http://www.w3.org/2000/svg">
<g id="Logo Copy">
<path id="Logo" fill-rule="evenodd" clip-rule="evenodd" d="M114.946 4.56733C116.133 5.9716 117.023 7.6028 117.616 9.46093C118.21 11.3192 118.507 13.3049 118.507 15.4184L118.453 19.0639H96.8226C96.9035 21.078 97.5642 22.7092 98.7779 23.9575C100.072 25.2908 102.311 25.9575 104.873 25.9575C106.842 25.9575 108.582 25.5745 109.836 24.7943C111.076 24.0141 112.182 23.0355 113.166 21.8297L117.387 26.3547C116.079 28.1135 114.313 29.5036 112.034 30.4964C109.768 31.5036 107.004 32 104.024 32C101.664 32 99.3982 31.6171 97.5373 30.8511C95.6898 30.0851 94.1255 29.0213 92.831 27.6312C91.5499 26.2412 90.5655 24.5673 89.8643 22.5957C89.1631 20.6241 88.8259 18.3972 88.8259 15.9432C88.8259 13.5177 89.1631 11.3333 89.8373 9.37587C90.4981 7.4184 91.4825 5.7588 92.7366 4.3688C94.0042 2.97867 95.555 1.91493 97.3889 1.14893C99.2364 0.382933 101.461 0 103.781 0C106.276 0 108.582 0.411333 110.402 1.234C112.249 2.04253 113.76 3.16307 114.946 4.56733ZM96.8226 12.9218H110.995H111.022V12.7658C111.022 10.6523 110.402 9.53168 109.175 8.19835C107.948 6.86501 106.006 6.11328 103.916 6.11328C101.826 6.11328 99.8837 6.86501 98.6565 8.19835C97.4294 9.53168 96.8226 10.6523 96.8226 12.7658V12.9218ZM45.094 0.723437L40.6844 15.9006C40.1045 17.8865 39.646 19.9006 39.3089 21.9433V21.9716H39.174C39.0899 21.1849 38.915 20.3983 38.7528 19.6683C38.681 19.3453 38.6116 19.0334 38.5537 18.7376L33.6991 0.723437H23.7876L18.9734 18.7234C18.9155 19.0193 18.8462 19.3312 18.7744 19.6541L18.7744 19.6541C18.6121 20.3841 18.4373 21.1707 18.3531 21.9574H18.2183V21.929C17.8812 19.8865 17.4227 17.8724 16.8428 15.8865L12.4467 0.723437H5.42099L7.4842 7.8581H0V12.9645H8.95407L10.4239 18.0425H0V23.1632H11.8938L14.2402 31.3476H22.6279L28.3051 9.8865C28.4939 9.09224 28.6557 8.2269 28.6962 7.61704H28.831C28.8715 8.21277 29.0333 9.09224 29.2086 9.8865L34.8858 31.3476H43.287L52.1197 0.723437H45.094ZM63.6494 0.723437H56.1787V31.3476H63.6494V0.723437ZM69.3401 31.3476V0.723437H87.5854V6.79437H76.204V31.3476H69.3401ZM129.187 15.7589L118.25 31.3476H126.598L133.354 20.7376H133.61L140.379 31.3333H149.333L138.397 15.8724L149.212 0.723437H140.865L134.351 10.8226H134.095L127.501 0.723437H118.547L129.187 15.7589Z" fill="#525454"/>
</g>
</svg>
